<svg xmlns="http://www.w3.org/2000/svg" width="1920" height="568.94" viewBox="0 0 1920 568.94">
  <defs>
    <style>
      .cls-1 {
        fill: none;
        stroke: #fff;
        stroke-width: 1px;
        stroke-dasharray: 7 7;
        fill-rule: evenodd;
      }
    </style>
  </defs>
  <path id="Пунктирная_линия" data-name="Пунктирная линия" class="cls-1" d="M-4,1637s101.807-29.44,130,97,68.807,166.56,134,175,89.807-43.44,82-81-125.193-86.44-58-112,234.168,24.44,323,17c82-6.87,168,19.56,125,98s-201.193,259.56-14,328,235.667,37.39,256-6c18.058-38.54,112.81-222.44,190-131s-250,25.56-220-137,297.81-216.44,359-73-142.19,223.56-74,326,420.81,85.56,460-77-75.19-369.44,112-249,229.81-81.44,253-175" transform="translate(0 -1633.56)"/>
</svg>
